<?xml version="1.0" encoding="UTF-8" standalone="no"?>
<!-- Created with Inkscape (http://www.inkscape.org/) -->

<svg
   version="1.1"
   id="svg1"
   width="700"
   height="700"
   viewBox="0 0 700 700"
   sodipodi:docname="Circulo CA.svg"
   inkscape:version="1.4 (86a8ad7, 2024-10-11)"
   xmlns:inkscape="http://www.inkscape.org/namespaces/inkscape"
   xmlns:sodipodi="http://sodipodi.sourceforge.net/DTD/sodipodi-0.dtd"
   xmlns="http://www.w3.org/2000/svg"
   xmlns:svg="http://www.w3.org/2000/svg">
  <defs
     id="defs1" />
  <sodipodi:namedview
     id="namedview1"
     pagecolor="#ffffff"
     bordercolor="#000000"
     borderopacity="0.25"
     inkscape:showpageshadow="2"
     inkscape:pageopacity="0.0"
     inkscape:pagecheckerboard="0"
     inkscape:deskcolor="#d1d1d1"
     showgrid="false"
     inkscape:zoom="0.815"
     inkscape:cx="499.3865"
     inkscape:cy="401.84049"
     inkscape:window-width="1920"
     inkscape:window-height="1017"
     inkscape:window-x="1912"
     inkscape:window-y="-8"
     inkscape:window-maximized="1"
     inkscape:current-layer="g1" />
  <g
     inkscape:groupmode="layer"
     inkscape:label="Image"
     id="g1">
    <path
       id="path1"
       style="fill:#000000"
       d="m 342.53768,24.95158 c -13.99841,0.10737 -28.17908,0.684851 -35.54688,1.679687 -20.44613,2.760736 -25.2352,3.563699 -36.91406,6.183594 -12.11603,2.717962 -38.23871,10.87993 -45.70508,14.28125 -2.49844,1.138174 -6.84111,2.975901 -9.65234,4.083984 -7.85184,3.094908 -26.13414,12.453867 -37.43164,19.16211 -30.62054,18.181902 -56.85177,40.480455 -82.802743,70.386715 -8.20452,9.45499 -20.77503,27.02324 -28.7168,40.13477 -5.42898,8.963 -19.27734,35.38583 -19.27734,36.78125 0,0.2947 -1.30842,3.36788 -2.9082,6.83008 -8.42929,18.24242 -16.31569,45.56907 -20.5293,71.13281 -8.571539,52.00314 -5.28749,101.10893 10.10938,151.16211 15.64612,50.86353 42.65839,95.15789 81.726563,134.01562 35.55131,35.35981 73.46534,59.20955 121.60156,76.49219 21.53768,7.73281 56.32215,15.22567 79,17.01758 14.68049,1.15998 56.31797,0.30757 69.5,-1.42383 27.72409,-3.64143 53.81214,-10.41363 79.5,-20.63476 11.64383,-4.63304 34.89247,-15.8146 41,-19.71875 2.475,-1.58211 7.425,-4.61861 11,-6.75 25.9086,-15.4465 59.80527,-45.40538 80.20898,-70.88867 C 639.97731,500.82767 663.9828,438.8796 668.53963,369.4926 673.05531,300.73221 653.8965,228.41939 616.15291,171.76994 582.96127,121.95252 539.27012,83.320885 487.4908,58.006267 451.1573,40.243023 423.86065,32.359444 376.9908,26.094158 370.35223,25.206752 356.53608,24.84421 342.53768,24.95158 Z m -5.3711,54.726562 c 13.13489,-0.34998 26.31861,0.367512 39.9668,2.142578 12.06522,1.569187 30.33767,4.974775 34.35742,6.402344 1.375,0.488315 5.2,1.654565 8.5,2.591797 28.95683,8.224021 64.81888,26.299749 87.5,44.103519 28.48737,22.36145 53.45547,50.47125 69.15039,77.85156 9.41592,16.42637 19.86351,39.0804 22.82813,49.5 0.7042,2.475 1.86757,6.3 2.58398,8.5 4.69287,14.4111 8.90365,35.05636 10.40234,51 2.84969,30.31591 -0.0514,71.68708 -6.625,94.5 -9.81715,34.0695 -15.50084,47.52869 -31.46875,74.50586 -4.35285,7.35398 -12.824,19.35224 -19.92382,28.21875 -13.91126,17.3729 -43.40255,45.34874 -46.06836,43.70117 -0.73714,-0.45557 -0.92407,-0.30817 -0.49219,0.39063 1.81362,2.9345 -32.42399,24.07836 -55.26758,34.13086 -24.88064,10.94893 -48.67098,17.62114 -73.61914,20.64453 -25.41445,3.07991 -56.71179,2.48658 -81.5,-1.54492 -23.75981,-3.86424 -51.35859,-13.09842 -75.4043,-25.22852 -7.03522,-3.54899 -10.03361,-5.21263 -17.13281,-9.50391 -56.42365,-34.10655 -97.54528,-85.83863 -118.292973,-148.81445 -17.27531,-52.43605 -17.3266,-112.58242 -0.14062,-165.5332 2.22551,-6.85692 4.4612,-13.3668 4.96875,-14.4668 0.50754,-1.1 3.00726,-6.725 5.55468,-12.5 15.553253,-35.25927 40.377903,-68.91481 68.968753,-93.5 3.83767,-3.3 7.20352,-6.23457 7.47852,-6.52148 1.1043,-1.15212 13.62351,-10.69263 14.5293,-11.07227 0.53429,-0.22393 4.7957,-2.92128 9.4707,-5.99609 20.55934,-13.52219 41.01863,-23.306446 62.72656,-29.996099 3.72588,-1.148189 7.55473,-2.49759 8.50977,-3 0.95504,-0.502409 2.67278,-0.914062 3.8164,-0.914062 1.14362,0 2.83734,-0.404882 3.76368,-0.900391 0.92634,-0.495509 3.03359,-1.131788 4.68359,-1.412109 1.65,-0.28032 9.075,-1.635615 16.5,-3.013672 13.45516,-2.497237 26.54089,-3.915645 39.67578,-4.265625 z M 491.3033,127.58635 c -0.79773,0.31922 -0.56143,0.55746 0.60352,0.60547 1.05416,0.0434 1.64479,-0.1931 1.3125,-0.5254 -0.33229,-0.33225 -1.19415,-0.36894 -1.91602,-0.0801 z m -241,79 c -0.79773,0.31922 -0.56143,0.55746 0.60352,0.60547 1.05416,0.0434 1.64479,-0.19311 1.3125,-0.5254 -0.33229,-0.33225 -1.19415,-0.36894 -1.91602,-0.0801 z m 4,0 c -0.79773,0.31922 -0.56143,0.55746 0.60352,0.60547 1.05416,0.0434 1.64479,-0.19311 1.3125,-0.5254 -0.33229,-0.33225 -1.19415,-0.36894 -1.91602,-0.0801 z m 265.38672,1.8457 c -9.7662,0.3068 -11.36459,0.6376 -17.38672,3.60547 -5.60959,2.76455 -8.91994,5.6799 -21.47266,18.91015 -8.16204,8.60259 -16.18984,17.04412 -17.83984,18.75977 -1.65,1.71566 -11.52158,12.10762 -21.9375,23.0918 -10.41592,10.98417 -23.69092,24.92927 -29.5,30.99023 -18.43309,19.23234 -46.6884,48.88381 -49.16992,51.59961 -1.31609,1.44033 -11.25145,11.79033 -22.07813,23 -10.82669,11.20967 -23.42669,24.26165 -28,29.00586 -4.57332,4.74421 -9.32695,9.14752 -10.56445,9.78516 l -2.25,1.16015 v 34.79883 c 0,19.13898 0.29179,35.08866 0.64844,35.44531 2.05651,2.05652 33.82109,-9.91347 40.71679,-15.34375 11.15898,-8.78755 19.42928,-16.95778 54.49219,-53.83593 2.94625,-3.09878 8.77847,-9.23477 12.96094,-13.63477 9.41233,-9.90185 22.06675,-23.14549 46.82422,-49.00586 10.5279,-10.9969 22.53383,-23.59414 26.68164,-27.99414 11.87482,-12.59684 11.17578,-15.2011 11.17578,41.60938 v 47.39062 l -41.20508,0.55859 -41.20508,0.56055 -7.79492,8.43945 c -4.28729,4.64231 -11.61986,12.51019 -16.29492,17.48243 -4.67507,4.97223 -13.9,14.85566 -20.5,21.96289 -6.6,7.10722 -13.68995,14.66487 -15.75586,16.79492 -2.0659,2.13005 -3.50228,4.28411 -3.19141,4.78711 0.33314,0.53903 29.59007,0.90708 71.25586,0.89648 81.66043,-0.0207 86.93805,-0.42122 101.4668,-7.71094 21.83537,-10.95578 36.32901,-28.35777 41.74414,-50.11523 1.95182,-7.84224 2.00343,-10.7958 1.74609,-102.86523 l -0.26562,-94.79102 -2.88867,-5.88281 c -4.8624,-9.90283 -13.2561,-16.27582 -24.65625,-18.72071 -2.75112,-0.59001 -9.84069,-0.92019 -15.75586,-0.73437 z m -251.50391,1.41601 c -6.56491,-0.20259 -12.93044,0.006 -18.80469,0.66797 -15.7842,1.7793 -36.98953,8.52618 -52.16406,16.59961 -3.17582,1.68966 -6.55082,2.82404 -7.5,2.51953 -1.21916,-0.39112 -1.3563,-0.28593 -0.46484,0.35743 0.90806,0.65534 -0.91454,2.47678 -6.5,6.49609 -7.24426,5.21299 -20.4621,17.40887 -26.31641,24.28125 -8.14717,9.56398 -17.72534,25.77542 -22.74609,38.5 -6.83577,17.32457 -9.52935,32.30563 -9.52734,53 0.002,16.32291 2.52868,30.28305 8.32421,46 18.20399,49.36752 63.18606,85.14652 115.00391,91.47461 5.775,0.70525 17.25,1.225 25.5,1.1543 l 15,-0.12891 0.12891,-30.5 c 0.0711,-16.775 -0.0777,-32.075 -0.33008,-34 l -0.45899,-3.5 -13.38672,0.34766 c -26.65271,0.69147 -44.84625,-6.09157 -61.45312,-22.90821 -31.55009,-31.94863 -25.48319,-85.35972 12.5,-110.04687 12.52691,-8.14186 27.59281,-12.89463 40.86133,-12.89063 19.1351,0.005 41.02443,8.76795 57.81055,23.14258 3.11907,2.67099 5.93157,4.85547 6.25,4.85547 0.31842,0 0.57812,-18.24942 0.57812,-40.55469 v -40.55469 l -5.75,-2.55859 c -15.37471,-6.84086 -36.85996,-11.14611 -56.55469,-11.75391 z m -136.72656,86.42188 c -0.53274,0 -0.96875,0.675 -0.96875,1.5 0,0.825 0.17643,1.5 0.39258,1.5 0.21616,0 0.65216,-0.675 0.96875,-1.5 0.31658,-0.825 0.14015,-1.5 -0.39258,-1.5 z m 234.84375,50.31641 c -0.79773,0.31922 -0.56143,0.55746 0.60352,0.60547 1.05416,0.0434 1.64479,-0.19311 1.3125,-0.5254 -0.33229,-0.33225 -1.19415,-0.36894 -1.91602,-0.0801 z m -170.68945,15.60937 c -0.19752,-0.0415 -0.41847,0.0357 -0.64649,0.26367 -0.28794,0.28794 -0.18849,1.37675 0.22071,2.41797 0.7082,1.80211 0.76108,1.80478 1.11132,0.0645 0.28663,-1.42422 -0.093,-2.6215 -0.68554,-2.7461 z m 145.87695,0.0742 c -0.55,0 -1,0.45 -1,1 0,0.55 0.45,1 1,1 0.55,0 1,-0.45 1,-1 0,-0.55 -0.45,-1 -1,-1 z m -24.1875,34.31641 c -0.79773,0.31922 -0.56143,0.55746 0.60352,0.60547 1.05416,0.0434 1.64479,-0.19311 1.3125,-0.5254 -0.33229,-0.33225 -1.19415,-0.36894 -1.91602,-0.0801 z m 90.12891,13.68359 c -0.58246,0 -0.78133,0.45 -0.44141,1 0.33992,0.55 0.81605,1 1.05859,1 0.24254,0 0.44141,-0.45 0.44141,-1 0,-0.55 -0.47613,-1 -1.05859,-1 z m -175.42969,2.47461 c -0.1678,0.0701 -0.17908,0.25368 -0.004,0.53711 0.33602,0.5437 1.03324,0.98828 1.55078,0.98828 1.43843,0 1.1211,-0.71607 -0.61132,-1.38086 -0.44494,-0.17074 -0.76775,-0.21461 -0.93555,-0.14453 z m 163.17969,16.54101 c -0.71561,0.009 -0.5927,0.40192 0.30859,0.98438 1.92112,1.24153 2.2673,1.24153 1.5,0 -0.33992,-0.55 -1.15355,-0.99237 -1.80859,-0.98438 z m -239.39844,14.3594 c -0.18125,0.0799 -0.29297,0.27518 -0.29297,0.56641 0,0.58246 0.45,1.05859 1,1.05859 0.55,0 1,-0.19887 1,-0.44141 0,-0.24254 -0.45,-0.71867 -1,-1.05859 -0.275,-0.16996 -0.52578,-0.20493 -0.70703,-0.125 z m 191.76562,35.625 c -0.58246,0 -1.05859,0.45 -1.05859,1 0,0.55 0.19887,1 0.44141,1 0.24254,0 0.71867,-0.45 1.05859,-1 0.33992,-0.55 0.14105,-1 -0.44141,-1 z m 174.88282,4 c -0.58246,0 -0.78133,0.45 -0.44141,1 0.33992,0.55 0.81605,1 1.05859,1 0.24254,0 0.44141,-0.45 0.44141,-1 0,-0.55 -0.47613,-1 -1.05859,-1 z m 52.33789,1.37891 c -0.10514,0.10514 -0.17717,0.45463 -0.20118,1.03711 -0.0434,1.05416 0.19311,1.64479 0.5254,1.3125 0.33225,-0.33229 0.36894,-1.19415 0.0801,-1.91602 -0.15961,-0.39887 -0.29916,-0.53873 -0.40429,-0.43359 z m -455.72071,8.62109 c -0.24254,0 -0.71867,0.45 -1.05859,1 -0.33992,0.55 -0.14105,1 0.44141,1 0.58246,0 1.05859,-0.45 1.05859,-1 0,-0.55 -0.19887,-1 -0.44141,-1 z m 438.73438,17.375 c -0.18125,0.0799 -0.29297,0.27518 -0.29297,0.56641 0,0.58246 0.45,1.05859 1,1.05859 0.55,0 1,-0.19887 1,-0.44141 0,-0.24254 -0.45,-0.71867 -1,-1.05859 -0.275,-0.16996 -0.52578,-0.20493 -0.70703,-0.125 z m 181.86719,266.66797 c -0.10761,-0.0477 0.32693,0.16093 0.17773,0.0937 -0.0517,-0.0233 0.10831,-0.0348 0.16211,-0.0527 -0.11246,-0.0238 -0.22726,-0.0187 -0.33984,-0.041 z" />
  </g>
</svg>
